<svg xmlns="http://www.w3.org/2000/svg" xmlns:xlink="http://www.w3.org/1999/xlink" width="500" zoomAndPan="magnify" viewBox="0 0 375 374.999991" height="500" preserveAspectRatio="xMidYMid meet" version="1.0"><defs><g/><clipPath id="f5340b6f6a"><path d="M 263 101 L 279.328125 101 L 279.328125 118 L 263 118 Z M 263 101 " clip-rule="nonzero"/></clipPath><clipPath id="bc0fff305c"><path d="M 263 219 L 279.328125 219 L 279.328125 236.261719 L 263 236.261719 Z M 263 219 " clip-rule="nonzero"/></clipPath><clipPath id="2168acd1db"><path d="M 100.828125 101 L 118 101 L 118 118 L 100.828125 118 Z M 100.828125 101 " clip-rule="nonzero"/></clipPath><clipPath id="f30bbcbd98"><path d="M 100.828125 219 L 118 219 L 118 236.261719 L 100.828125 236.261719 Z M 100.828125 219 " clip-rule="nonzero"/></clipPath><clipPath id="fd9dd00418"><path d="M 244 69.761719 L 262 69.761719 L 262 87 L 244 87 Z M 244 69.761719 " clip-rule="nonzero"/></clipPath><clipPath id="3893bee621"><path d="M 119 69.761719 L 136 69.761719 L 136 87 L 119 87 Z M 119 69.761719 " clip-rule="nonzero"/></clipPath><clipPath id="3678da544e"><rect x="0" width="300" y="0" height="45"/></clipPath><clipPath id="8679022180"><rect x="0" width="233" y="0" height="17"/></clipPath></defs><rect x="-37.5" width="450" fill="#ffffff" y="-37.499999" height="449.999989" fill-opacity="1"/><rect x="-37.5" width="450" fill="#ffffff" y="-37.499999" height="449.999989" fill-opacity="1"/><path fill="#00b6ad" d="M 252.550781 142.617188 C 251.859375 142.617188 251.167969 142.363281 250.628906 141.847656 L 190.253906 84.480469 L 129.882812 141.847656 C 128.765625 142.910156 126.996094 142.867188 125.933594 141.746094 C 124.871094 140.628906 124.917969 138.859375 126.035156 137.796875 L 188.332031 78.601562 C 189.410156 77.578125 191.101562 77.578125 192.179688 78.601562 L 254.476562 137.796875 C 255.59375 138.859375 255.640625 140.628906 254.578125 141.746094 C 254.027344 142.324219 253.289062 142.617188 252.550781 142.617188 Z M 252.550781 142.617188 " fill-opacity="1" fill-rule="nonzero"/><path fill="#00b6ad" d="M 241.191406 203.847656 L 139.320312 203.847656 C 137.777344 203.847656 136.527344 202.597656 136.527344 201.054688 L 136.527344 129.027344 C 136.527344 127.484375 137.777344 126.234375 139.320312 126.234375 C 140.863281 126.234375 142.113281 127.484375 142.113281 129.027344 L 142.113281 198.261719 L 238.398438 198.261719 L 238.398438 129.027344 C 238.398438 127.484375 239.648438 126.234375 241.191406 126.234375 C 242.734375 126.234375 243.984375 127.484375 243.984375 129.027344 L 243.984375 201.054688 C 243.984375 202.597656 242.734375 203.847656 241.191406 203.847656 Z M 241.191406 203.847656 " fill-opacity="1" fill-rule="nonzero"/><path fill="#00b6ad" d="M 200.691406 172.503906 C 199.976562 172.503906 199.261719 172.234375 198.71875 171.6875 C 194.050781 167.019531 186.460938 167.019531 181.792969 171.6875 C 180.703125 172.777344 178.933594 172.777344 177.84375 171.6875 C 176.75 170.597656 176.75 168.828125 177.84375 167.738281 C 184.6875 160.890625 195.824219 160.890625 202.667969 167.738281 C 203.757812 168.828125 203.757812 170.597656 202.667969 171.6875 C 202.125 172.234375 201.410156 172.503906 200.691406 172.503906 Z M 200.691406 172.503906 " fill-opacity="1" fill-rule="nonzero"/><path fill="#00b6ad" d="M 171.925781 161.320312 C 171.210938 161.320312 170.496094 161.046875 169.949219 160.5 C 168.859375 159.410156 168.859375 157.640625 169.949219 156.550781 C 175.375 151.125 182.585938 148.140625 190.253906 148.140625 C 197.925781 148.140625 205.136719 151.125 210.5625 156.550781 C 211.652344 157.640625 211.652344 159.410156 210.5625 160.5 C 209.46875 161.59375 207.703125 161.59375 206.609375 160.5 C 202.242188 156.132812 196.433594 153.726562 190.253906 153.726562 C 184.078125 153.726562 178.269531 156.132812 173.902344 160.5 C 173.355469 161.046875 172.640625 161.320312 171.925781 161.320312 Z M 171.925781 161.320312 " fill-opacity="1" fill-rule="nonzero"/><path fill="#00b6ad" d="M 216.476562 150.132812 C 215.761719 150.132812 215.046875 149.859375 214.503906 149.316406 C 201.132812 135.945312 179.378906 135.945312 166.007812 149.316406 C 164.917969 150.40625 163.148438 150.40625 162.058594 149.316406 C 160.964844 148.222656 160.964844 146.453125 162.058594 145.363281 C 165.863281 141.558594 170.300781 138.609375 175.25 136.605469 C 180.027344 134.667969 185.078125 133.683594 190.253906 133.683594 C 195.433594 133.683594 200.480469 134.667969 205.261719 136.605469 C 210.207031 138.609375 214.648438 141.558594 218.453125 145.363281 C 219.542969 146.453125 219.542969 148.222656 218.453125 149.316406 C 217.90625 149.859375 217.191406 150.132812 216.476562 150.132812 Z M 216.476562 150.132812 " fill-opacity="1" fill-rule="nonzero"/><path fill="#00b6ad" d="M 192.898438 181.164062 C 192.898438 181.515625 192.832031 181.851562 192.699219 182.175781 C 192.5625 182.5 192.375 182.785156 192.125 183.035156 C 191.878906 183.28125 191.589844 183.472656 191.265625 183.609375 C 190.945312 183.742188 190.605469 183.808594 190.253906 183.808594 C 189.90625 183.808594 189.566406 183.742188 189.242188 183.609375 C 188.917969 183.472656 188.632812 183.28125 188.386719 183.035156 C 188.136719 182.785156 187.945312 182.5 187.8125 182.175781 C 187.679688 181.851562 187.609375 181.515625 187.609375 181.164062 C 187.609375 180.8125 187.679688 180.476562 187.8125 180.152344 C 187.945312 179.828125 188.136719 179.542969 188.386719 179.296875 C 188.632812 179.046875 188.917969 178.855469 189.242188 178.722656 C 189.566406 178.585938 189.90625 178.519531 190.253906 178.519531 C 190.605469 178.519531 190.945312 178.585938 191.265625 178.722656 C 191.589844 178.855469 191.878906 179.046875 192.125 179.296875 C 192.375 179.542969 192.5625 179.828125 192.699219 180.152344 C 192.832031 180.476562 192.898438 180.8125 192.898438 181.164062 Z M 192.898438 181.164062 " fill-opacity="1" fill-rule="nonzero"/><path fill="#00b6ad" d="M 190.253906 219.726562 C 188.710938 219.726562 187.460938 218.476562 187.460938 216.933594 L 187.460938 201.054688 C 187.460938 199.511719 188.710938 198.261719 190.253906 198.261719 C 191.796875 198.261719 193.050781 199.511719 193.050781 201.054688 L 193.050781 216.933594 C 193.050781 218.476562 191.796875 219.726562 190.253906 219.726562 Z M 190.253906 219.726562 " fill-opacity="1" fill-rule="nonzero"/><path fill="#00b6ad" d="M 190.253906 231.089844 C 185.582031 231.089844 181.78125 227.289062 181.78125 222.613281 C 181.78125 217.941406 185.582031 214.140625 190.253906 214.140625 C 194.929688 214.140625 198.730469 217.941406 198.730469 222.613281 C 198.730469 227.289062 194.929688 231.089844 190.253906 231.089844 Z M 190.253906 219.726562 C 188.664062 219.726562 187.367188 221.023438 187.367188 222.617188 C 187.367188 224.207031 188.664062 225.503906 190.253906 225.503906 C 191.847656 225.503906 193.144531 224.207031 193.144531 222.617188 C 193.144531 221.023438 191.847656 219.726562 190.253906 219.726562 Z M 190.253906 219.726562 " fill-opacity="1" fill-rule="nonzero"/><path fill="#00b6ad" d="M 226.140625 225.410156 L 195.9375 225.410156 C 194.394531 225.410156 193.144531 224.160156 193.144531 222.617188 C 193.144531 221.074219 194.394531 219.820312 195.9375 219.820312 L 226.140625 219.820312 C 227.683594 219.820312 228.933594 221.074219 228.933594 222.617188 C 228.933594 224.160156 227.683594 225.410156 226.140625 225.410156 Z M 226.140625 225.410156 " fill-opacity="1" fill-rule="nonzero"/><path fill="#00b6ad" d="M 184.574219 225.410156 L 154.371094 225.410156 C 152.828125 225.410156 151.578125 224.160156 151.578125 222.617188 C 151.578125 221.074219 152.828125 219.820312 154.371094 219.820312 L 184.574219 219.820312 C 186.117188 219.820312 187.367188 221.074219 187.367188 222.617188 C 187.367188 224.160156 186.117188 225.410156 184.574219 225.410156 Z M 184.574219 225.410156 " fill-opacity="1" fill-rule="nonzero"/><path fill="#00b6ad" d="M 271.421875 164.160156 L 241.191406 164.160156 C 239.648438 164.160156 238.398438 162.910156 238.398438 161.367188 C 238.398438 159.824219 239.648438 158.570312 241.191406 158.570312 L 268.628906 158.570312 L 268.628906 114.820312 C 268.628906 113.277344 269.878906 112.027344 271.421875 112.027344 C 272.964844 112.027344 274.214844 113.277344 274.214844 114.820312 L 274.214844 161.367188 C 274.214844 162.910156 272.964844 164.160156 271.421875 164.160156 Z M 271.421875 164.160156 " fill-opacity="1" fill-rule="nonzero"/><g clip-path="url(#f5340b6f6a)"><path fill="#00b6ad" d="M 271.421875 117.613281 C 266.882812 117.613281 263.191406 113.921875 263.191406 109.386719 C 263.191406 104.847656 266.882812 101.15625 271.421875 101.15625 C 275.960938 101.15625 279.652344 104.847656 279.652344 109.386719 C 279.652344 113.921875 275.960938 117.613281 271.421875 117.613281 Z M 271.421875 106.742188 C 269.964844 106.742188 268.777344 107.929688 268.777344 109.386719 C 268.777344 110.84375 269.964844 112.027344 271.421875 112.027344 C 272.878906 112.027344 274.0625 110.84375 274.0625 109.386719 C 274.0625 107.929688 272.878906 106.742188 271.421875 106.742188 Z M 271.421875 106.742188 " fill-opacity="1" fill-rule="nonzero"/></g><path fill="#00b6ad" d="M 271.421875 225.222656 C 269.878906 225.222656 268.628906 223.972656 268.628906 222.429688 L 268.628906 178.679688 L 241.191406 178.679688 C 239.648438 178.679688 238.398438 177.429688 238.398438 175.886719 C 238.398438 174.34375 239.648438 173.09375 241.191406 173.09375 L 271.421875 173.09375 C 272.964844 173.09375 274.214844 174.34375 274.214844 175.886719 L 274.214844 222.429688 C 274.214844 223.972656 272.964844 225.222656 271.421875 225.222656 Z M 271.421875 225.222656 " fill-opacity="1" fill-rule="nonzero"/><g clip-path="url(#bc0fff305c)"><path fill="#00b6ad" d="M 271.421875 236.097656 C 266.882812 236.097656 263.191406 232.402344 263.191406 227.867188 C 263.191406 223.328125 266.882812 219.636719 271.421875 219.636719 C 275.960938 219.636719 279.652344 223.328125 279.652344 227.867188 C 279.652344 232.402344 275.960938 236.097656 271.421875 236.097656 Z M 271.421875 225.222656 C 269.964844 225.222656 268.777344 226.410156 268.777344 227.867188 C 268.777344 229.324219 269.964844 230.507812 271.421875 230.507812 C 272.878906 230.507812 274.0625 229.324219 274.0625 227.867188 C 274.0625 226.410156 272.878906 225.222656 271.421875 225.222656 Z M 271.421875 225.222656 " fill-opacity="1" fill-rule="nonzero"/></g><path fill="#00b6ad" d="M 139.320312 164.160156 L 109.089844 164.160156 C 107.546875 164.160156 106.296875 162.910156 106.296875 161.367188 L 106.296875 114.820312 C 106.296875 113.277344 107.546875 112.027344 109.089844 112.027344 C 110.632812 112.027344 111.882812 113.277344 111.882812 114.820312 L 111.882812 158.570312 L 139.320312 158.570312 C 140.863281 158.570312 142.113281 159.824219 142.113281 161.367188 C 142.113281 162.910156 140.863281 164.160156 139.320312 164.160156 Z M 139.320312 164.160156 " fill-opacity="1" fill-rule="nonzero"/><g clip-path="url(#2168acd1db)"><path fill="#00b6ad" d="M 109.089844 117.613281 C 104.550781 117.613281 100.859375 113.921875 100.859375 109.386719 C 100.859375 104.847656 104.550781 101.15625 109.089844 101.15625 C 113.628906 101.15625 117.320312 104.847656 117.320312 109.386719 C 117.320312 113.921875 113.628906 117.613281 109.089844 117.613281 Z M 109.089844 106.742188 C 107.632812 106.742188 106.449219 107.929688 106.449219 109.386719 C 106.449219 110.84375 107.632812 112.027344 109.089844 112.027344 C 110.546875 112.027344 111.730469 110.84375 111.730469 109.386719 C 111.730469 107.929688 110.546875 106.742188 109.089844 106.742188 Z M 109.089844 106.742188 " fill-opacity="1" fill-rule="nonzero"/></g><path fill="#00b6ad" d="M 109.089844 225.222656 C 107.546875 225.222656 106.296875 223.972656 106.296875 222.429688 L 106.296875 175.886719 C 106.296875 174.34375 107.546875 173.09375 109.089844 173.09375 L 139.320312 173.09375 C 140.863281 173.09375 142.113281 174.34375 142.113281 175.886719 C 142.113281 177.429688 140.863281 178.679688 139.320312 178.679688 L 111.882812 178.679688 L 111.882812 222.429688 C 111.882812 223.972656 110.632812 225.222656 109.089844 225.222656 Z M 109.089844 225.222656 " fill-opacity="1" fill-rule="nonzero"/><g clip-path="url(#f30bbcbd98)"><path fill="#00b6ad" d="M 109.089844 236.097656 C 104.550781 236.097656 100.859375 232.402344 100.859375 227.867188 C 100.859375 223.328125 104.550781 219.636719 109.089844 219.636719 C 113.628906 219.636719 117.320312 223.328125 117.320312 227.867188 C 117.320312 232.402344 113.628906 236.097656 109.089844 236.097656 Z M 109.089844 225.222656 C 107.632812 225.222656 106.449219 226.410156 106.449219 227.867188 C 106.449219 229.324219 107.632812 230.507812 109.089844 230.507812 C 110.546875 230.507812 111.730469 229.324219 111.730469 227.867188 C 111.730469 226.410156 110.546875 225.222656 109.089844 225.222656 Z M 109.089844 225.222656 " fill-opacity="1" fill-rule="nonzero"/></g><path fill="#00b6ad" d="M 220.652344 111.589844 C 219.109375 111.589844 217.859375 110.339844 217.859375 108.796875 L 217.859375 77.988281 C 217.859375 76.445312 219.109375 75.191406 220.652344 75.191406 L 247.515625 75.191406 C 249.058594 75.191406 250.308594 76.445312 250.308594 77.988281 C 250.308594 79.53125 249.058594 80.78125 247.515625 80.78125 L 223.445312 80.78125 L 223.445312 108.796875 C 223.445312 110.339844 222.195312 111.589844 220.652344 111.589844 Z M 220.652344 111.589844 " fill-opacity="1" fill-rule="nonzero"/><g clip-path="url(#fd9dd00418)"><path fill="#00b6ad" d="M 252.949219 86.214844 C 248.410156 86.214844 244.71875 82.523438 244.71875 77.988281 C 244.71875 73.449219 248.410156 69.757812 252.949219 69.757812 C 257.488281 69.757812 261.179688 73.449219 261.179688 77.988281 C 261.179688 82.523438 257.488281 86.214844 252.949219 86.214844 Z M 252.949219 75.34375 C 251.492188 75.34375 250.308594 76.53125 250.308594 77.988281 C 250.308594 79.445312 251.492188 80.628906 252.949219 80.628906 C 254.40625 80.628906 255.59375 79.445312 255.59375 77.988281 C 255.59375 76.53125 254.40625 75.34375 252.949219 75.34375 Z M 252.949219 75.34375 " fill-opacity="1" fill-rule="nonzero"/></g><path fill="#00b6ad" d="M 159.859375 111.589844 C 158.316406 111.589844 157.066406 110.339844 157.066406 108.796875 L 157.066406 80.78125 L 132.996094 80.78125 C 131.453125 80.78125 130.203125 79.53125 130.203125 77.988281 C 130.203125 76.445312 131.453125 75.191406 132.996094 75.191406 L 159.859375 75.191406 C 161.402344 75.191406 162.652344 76.445312 162.652344 77.988281 L 162.652344 108.796875 C 162.652344 110.339844 161.402344 111.589844 159.859375 111.589844 Z M 159.859375 111.589844 " fill-opacity="1" fill-rule="nonzero"/><g clip-path="url(#3893bee621)"><path fill="#00b6ad" d="M 127.5625 86.214844 C 123.023438 86.214844 119.332031 82.523438 119.332031 77.988281 C 119.332031 73.449219 123.023438 69.757812 127.5625 69.757812 C 132.097656 69.757812 135.789062 73.449219 135.789062 77.988281 C 135.789062 82.523438 132.097656 86.214844 127.5625 86.214844 Z M 127.5625 75.34375 C 126.105469 75.34375 124.917969 76.53125 124.917969 77.988281 C 124.917969 79.445312 126.105469 80.628906 127.5625 80.628906 C 129.019531 80.628906 130.203125 79.445312 130.203125 77.988281 C 130.203125 76.53125 129.019531 75.34375 127.5625 75.34375 Z M 127.5625 75.34375 " fill-opacity="1" fill-rule="nonzero"/></g><g transform="matrix(1, 0, 0, 1, 40, 242)"><g clip-path="url(#3678da544e)"><g fill="#202020" fill-opacity="1"><g transform="translate(1.062872, 35.464893)"><g><path d="M 14.859375 0.671875 C 12.316406 0.671875 10.078125 0.210938 8.140625 -0.703125 C 6.203125 -1.628906 4.6875 -2.945312 3.59375 -4.65625 C 2.5 -6.375 1.953125 -8.425781 1.953125 -10.8125 L 9.234375 -10.8125 C 9.234375 -9.1875 9.796875 -7.984375 10.921875 -7.203125 C 12.046875 -6.429688 13.34375 -6.046875 14.8125 -6.046875 C 15.726562 -6.046875 16.585938 -6.195312 17.390625 -6.5 C 18.203125 -6.800781 18.867188 -7.242188 19.390625 -7.828125 C 19.921875 -8.421875 20.1875 -9.128906 20.1875 -9.953125 C 20.1875 -10.804688 19.882812 -11.476562 19.28125 -11.96875 C 18.675781 -12.46875 17.863281 -12.875 16.84375 -13.1875 C 15.832031 -13.5 14.722656 -13.800781 13.515625 -14.09375 C 12.285156 -14.375 11.019531 -14.722656 9.71875 -15.140625 C 8.414062 -15.554688 7.207031 -16.101562 6.09375 -16.78125 C 4.976562 -17.46875 4.085938 -18.390625 3.421875 -19.546875 C 2.753906 -20.703125 2.421875 -22.171875 2.421875 -23.953125 C 2.421875 -27.148438 3.507812 -29.613281 5.6875 -31.34375 C 7.863281 -33.082031 10.804688 -33.953125 14.515625 -33.953125 C 18.328125 -33.953125 21.28125 -32.988281 23.375 -31.0625 C 25.46875 -29.144531 26.515625 -26.535156 26.515625 -23.234375 L 19.375 -23.234375 C 19.375 -24.660156 18.863281 -25.710938 17.84375 -26.390625 C 16.832031 -27.078125 15.660156 -27.421875 14.328125 -27.421875 C 13.148438 -27.421875 12.066406 -27.164062 11.078125 -26.65625 C 10.097656 -26.15625 9.609375 -25.363281 9.609375 -24.28125 C 9.609375 -23.488281 9.898438 -22.859375 10.484375 -22.390625 C 11.078125 -21.929688 11.859375 -21.550781 12.828125 -21.25 C 13.796875 -20.957031 14.867188 -20.664062 16.046875 -20.375 C 17.316406 -20.0625 18.617188 -19.6875 19.953125 -19.25 C 21.285156 -18.820312 22.519531 -18.242188 23.65625 -17.515625 C 24.800781 -16.785156 25.726562 -15.816406 26.4375 -14.609375 C 27.15625 -13.410156 27.515625 -11.890625 27.515625 -10.046875 C 27.515625 -7.628906 26.9375 -5.628906 25.78125 -4.046875 C 24.625 -2.460938 23.09375 -1.28125 21.1875 -0.5 C 19.28125 0.28125 17.171875 0.671875 14.859375 0.671875 Z M 14.859375 0.671875 "/></g></g></g><g fill="#202020" fill-opacity="1"><g transform="translate(30.52087, 35.464893)"><g><path d="M 32.5625 -26.328125 C 34.34375 -26.328125 35.914062 -25.890625 37.28125 -25.015625 C 38.644531 -24.140625 39.710938 -22.941406 40.484375 -21.421875 C 41.265625 -19.898438 41.65625 -18.140625 41.65625 -16.140625 L 41.65625 0 L 34.703125 0 L 34.703125 -15 C 34.703125 -18.488281 33.398438 -20.234375 30.796875 -20.234375 C 29.273438 -20.234375 28.078125 -19.675781 27.203125 -18.5625 C 26.335938 -17.457031 25.90625 -15.90625 25.90625 -13.90625 L 25.90625 0 L 19.09375 0 L 19.09375 -15 C 19.09375 -18.488281 17.835938 -20.234375 15.328125 -20.234375 C 13.742188 -20.234375 12.503906 -19.675781 11.609375 -18.5625 C 10.722656 -17.457031 10.28125 -15.90625 10.28125 -13.90625 L 10.28125 0 L 3.328125 0 L 3.328125 -25.703125 L 8.1875 -25.703125 L 9.46875 -22.515625 C 10.394531 -23.660156 11.53125 -24.582031 12.875 -25.28125 C 14.226562 -25.976562 15.664062 -26.328125 17.1875 -26.328125 C 18.800781 -26.328125 20.257812 -25.960938 21.5625 -25.234375 C 22.863281 -24.503906 23.878906 -23.488281 24.609375 -22.1875 C 25.503906 -23.457031 26.648438 -24.460938 28.046875 -25.203125 C 29.441406 -25.953125 30.945312 -26.328125 32.5625 -26.328125 Z M 32.5625 -26.328125 "/></g></g></g><g fill="#202020" fill-opacity="1"><g transform="translate(75.159972, 35.464893)"><g><path d="M 24.328125 -25.75 L 29.515625 -25.75 L 29.515625 -0.046875 L 24.046875 -0.046875 L 23.46875 -2.328125 C 22.363281 -1.378906 21.101562 -0.632812 19.6875 -0.09375 C 18.269531 0.445312 16.753906 0.71875 15.140625 0.71875 C 12.566406 0.71875 10.265625 0.125 8.234375 -1.0625 C 6.203125 -2.257812 4.597656 -3.878906 3.421875 -5.921875 C 2.253906 -7.972656 1.671875 -10.300781 1.671875 -12.90625 C 1.671875 -15.476562 2.253906 -17.785156 3.421875 -19.828125 C 4.597656 -21.878906 6.203125 -23.488281 8.234375 -24.65625 C 10.265625 -25.832031 12.566406 -26.421875 15.140625 -26.421875 C 16.785156 -26.421875 18.320312 -26.140625 19.75 -25.578125 C 21.1875 -25.023438 22.457031 -24.257812 23.5625 -23.28125 Z M 15.71875 -5.859375 C 17.039062 -5.859375 18.234375 -6.160156 19.296875 -6.765625 C 20.367188 -7.367188 21.203125 -8.203125 21.796875 -9.265625 C 22.398438 -10.328125 22.703125 -11.539062 22.703125 -12.90625 C 22.703125 -14.238281 22.398438 -15.4375 21.796875 -16.5 C 21.203125 -17.5625 20.367188 -18.398438 19.296875 -19.015625 C 18.234375 -19.640625 17.039062 -19.953125 15.71875 -19.953125 C 14.34375 -19.953125 13.128906 -19.640625 12.078125 -19.015625 C 11.035156 -18.398438 10.210938 -17.5625 9.609375 -16.5 C 9.015625 -15.4375 8.71875 -14.238281 8.71875 -12.90625 C 8.71875 -11.539062 9.015625 -10.332031 9.609375 -9.28125 C 10.210938 -8.238281 11.035156 -7.40625 12.078125 -6.78125 C 13.128906 -6.164062 14.34375 -5.859375 15.71875 -5.859375 Z M 15.71875 -5.859375 "/></g></g></g><g fill="#202020" fill-opacity="1"><g transform="translate(107.996829, 35.464893)"><g><path d="M 16.46875 -25.859375 L 18.765625 -25.859375 L 18.765625 -19.28125 L 15.765625 -19.28125 C 13.796875 -19.28125 12.390625 -18.816406 11.546875 -17.890625 C 10.703125 -16.972656 10.28125 -15.46875 10.28125 -13.375 L 10.28125 0 L 3.328125 0 L 3.328125 -25.703125 L 7.8125 -25.703125 L 9.046875 -22.5625 C 10.796875 -24.757812 13.269531 -25.859375 16.46875 -25.859375 Z M 16.46875 -25.859375 "/></g></g></g><g fill="#202020" fill-opacity="1"><g transform="translate(127.365819, 35.464893)"><g><path d="M 15.90625 -6.1875 L 19.046875 -6.1875 L 19.046875 0 L 14.140625 0 C 11.316406 0 9.085938 -0.816406 7.453125 -2.453125 C 5.816406 -4.085938 5 -6.332031 5 -9.1875 L 5 -20.140625 L 0.328125 -20.140625 L 0.328125 -21.609375 L 10.515625 -32.421875 L 11.8125 -32.421875 L 11.8125 -25.703125 L 18.90625 -25.703125 L 18.90625 -20.140625 L 11.953125 -20.140625 L 11.953125 -10.09375 C 11.953125 -8.851562 12.289062 -7.890625 12.96875 -7.203125 C 13.65625 -6.523438 14.632812 -6.1875 15.90625 -6.1875 Z M 15.90625 -6.1875 "/></g></g></g><g fill="#202020" fill-opacity="1"><g transform="translate(147.829369, 35.464893)"><g/></g></g><g fill="#202020" fill-opacity="1"><g transform="translate(159.203294, 35.464893)"><g><path d="M 23.5625 -33.328125 L 30.75 -33.328125 L 30.75 0 L 23.5625 0 L 23.5625 -13.765625 L 11.046875 -13.765625 L 11.046875 0 L 3.8125 0 L 3.8125 -33.328125 L 11.046875 -33.328125 L 11.046875 -20.46875 L 23.5625 -20.46875 Z M 23.5625 -33.328125 "/></g></g></g><g fill="#202020" fill-opacity="1"><g transform="translate(193.800975, 35.464893)"><g><path d="M 15.5625 0.71875 C 12.894531 0.71875 10.515625 0.125 8.421875 -1.0625 C 6.328125 -2.257812 4.675781 -3.878906 3.46875 -5.921875 C 2.269531 -7.972656 1.671875 -10.285156 1.671875 -12.859375 C 1.671875 -15.460938 2.269531 -17.785156 3.46875 -19.828125 C 4.675781 -21.878906 6.328125 -23.488281 8.421875 -24.65625 C 10.515625 -25.832031 12.894531 -26.421875 15.5625 -26.421875 C 18.195312 -26.421875 20.5625 -25.832031 22.65625 -24.65625 C 24.75 -23.488281 26.398438 -21.878906 27.609375 -19.828125 C 28.816406 -17.785156 29.421875 -15.460938 29.421875 -12.859375 C 29.421875 -10.285156 28.816406 -7.972656 27.609375 -5.921875 C 26.398438 -3.878906 24.75 -2.257812 22.65625 -1.0625 C 20.5625 0.125 18.195312 0.71875 15.5625 0.71875 Z M 15.5625 -5.8125 C 17.5625 -5.8125 19.195312 -6.460938 20.46875 -7.765625 C 21.738281 -9.066406 22.375 -10.765625 22.375 -12.859375 C 22.375 -14.953125 21.738281 -16.648438 20.46875 -17.953125 C 19.195312 -19.253906 17.5625 -19.90625 15.5625 -19.90625 C 13.53125 -19.90625 11.878906 -19.253906 10.609375 -17.953125 C 9.347656 -16.648438 8.71875 -14.953125 8.71875 -12.859375 C 8.71875 -10.765625 9.347656 -9.066406 10.609375 -7.765625 C 11.878906 -6.460938 13.53125 -5.8125 15.5625 -5.8125 Z M 15.5625 -5.8125 "/></g></g></g><g fill="#202020" fill-opacity="1"><g transform="translate(224.87703, 35.464893)"><g><path d="M 32.5625 -26.328125 C 34.34375 -26.328125 35.914062 -25.890625 37.28125 -25.015625 C 38.644531 -24.140625 39.710938 -22.941406 40.484375 -21.421875 C 41.265625 -19.898438 41.65625 -18.140625 41.65625 -16.140625 L 41.65625 0 L 34.703125 0 L 34.703125 -15 C 34.703125 -18.488281 33.398438 -20.234375 30.796875 -20.234375 C 29.273438 -20.234375 28.078125 -19.675781 27.203125 -18.5625 C 26.335938 -17.457031 25.90625 -15.90625 25.90625 -13.90625 L 25.90625 0 L 19.09375 0 L 19.09375 -15 C 19.09375 -18.488281 17.835938 -20.234375 15.328125 -20.234375 C 13.742188 -20.234375 12.503906 -19.675781 11.609375 -18.5625 C 10.722656 -17.457031 10.28125 -15.90625 10.28125 -13.90625 L 10.28125 0 L 3.328125 0 L 3.328125 -25.703125 L 8.1875 -25.703125 L 9.46875 -22.515625 C 10.394531 -23.660156 11.53125 -24.582031 12.875 -25.28125 C 14.226562 -25.976562 15.664062 -26.328125 17.1875 -26.328125 C 18.800781 -26.328125 20.257812 -25.960938 21.5625 -25.234375 C 22.863281 -24.503906 23.878906 -23.488281 24.609375 -22.1875 C 25.503906 -23.457031 26.648438 -24.460938 28.046875 -25.203125 C 29.441406 -25.953125 30.945312 -26.328125 32.5625 -26.328125 Z M 32.5625 -26.328125 "/></g></g></g><g fill="#202020" fill-opacity="1"><g transform="translate(269.516131, 35.464893)"><g><path d="M 28.28125 -12.953125 C 28.28125 -12.285156 28.234375 -11.601562 28.140625 -10.90625 L 8.71875 -10.90625 C 9 -9.15625 9.691406 -7.8125 10.796875 -6.875 C 11.910156 -5.9375 13.3125 -5.46875 15 -5.46875 C 16.207031 -5.46875 17.285156 -5.726562 18.234375 -6.25 C 19.179688 -6.78125 19.910156 -7.503906 20.421875 -8.421875 L 27.75 -8.421875 C 26.800781 -5.628906 25.179688 -3.40625 22.890625 -1.75 C 20.609375 -0.101562 17.976562 0.71875 15 0.71875 C 12.457031 0.71875 10.175781 0.125 8.15625 -1.0625 C 6.144531 -2.257812 4.5625 -3.878906 3.40625 -5.921875 C 2.25 -7.972656 1.671875 -10.285156 1.671875 -12.859375 C 1.671875 -15.421875 2.25 -17.726562 3.40625 -19.78125 C 4.5625 -21.832031 6.144531 -23.453125 8.15625 -24.640625 C 10.175781 -25.828125 12.457031 -26.421875 15 -26.421875 C 17.632812 -26.421875 19.953125 -25.804688 21.953125 -24.578125 C 23.953125 -23.359375 25.503906 -21.734375 26.609375 -19.703125 C 27.722656 -17.671875 28.28125 -15.421875 28.28125 -12.953125 Z M 15 -20.515625 C 13.445312 -20.515625 12.132812 -20.085938 11.0625 -19.234375 C 10 -18.378906 9.28125 -17.1875 8.90625 -15.65625 L 21.328125 -15.65625 C 20.316406 -18.894531 18.207031 -20.515625 15 -20.515625 Z M 15 -20.515625 "/></g></g></g></g></g><g transform="matrix(1, 0, 0, 1, 76, 286)"><g clip-path="url(#8679022180)"><g fill="#202020" fill-opacity="1"><g transform="translate(1.228668, 12.881316)"><g><path d="M 8.859375 -11.359375 L 10.28125 -11.359375 L 10.28125 0 L 8.859375 0 L 8.859375 -5.15625 L 2.96875 -5.15625 L 2.96875 0 L 1.5625 0 L 1.5625 -11.359375 L 2.96875 -11.359375 L 2.96875 -6.53125 L 8.859375 -6.53125 Z M 8.859375 -11.359375 "/></g></g></g><g fill="#202020" fill-opacity="1"><g transform="translate(17.377428, 12.881316)"><g><path d="M 6.71875 0.1875 C 5.863281 0.1875 5.070312 0.0390625 4.34375 -0.25 C 3.625 -0.550781 2.992188 -0.960938 2.453125 -1.484375 C 1.921875 -2.015625 1.507812 -2.632812 1.21875 -3.34375 C 0.925781 -4.0625 0.78125 -4.84375 0.78125 -5.6875 C 0.78125 -6.519531 0.925781 -7.289062 1.21875 -8 C 1.507812 -8.71875 1.921875 -9.34375 2.453125 -9.875 C 2.992188 -10.40625 3.625 -10.816406 4.34375 -11.109375 C 5.070312 -11.410156 5.863281 -11.5625 6.71875 -11.5625 C 7.582031 -11.5625 8.375 -11.410156 9.09375 -11.109375 C 9.820312 -10.816406 10.453125 -10.40625 10.984375 -9.875 C 11.515625 -9.34375 11.925781 -8.722656 12.21875 -8.015625 C 12.519531 -7.304688 12.671875 -6.53125 12.671875 -5.6875 C 12.671875 -4.84375 12.519531 -4.0625 12.21875 -3.34375 C 11.925781 -2.625 11.515625 -2.003906 10.984375 -1.484375 C 10.453125 -0.960938 9.820312 -0.550781 9.09375 -0.25 C 8.375 0.0390625 7.582031 0.1875 6.71875 0.1875 Z M 6.71875 -1.203125 C 7.582031 -1.203125 8.351562 -1.394531 9.03125 -1.78125 C 9.707031 -2.175781 10.238281 -2.710938 10.625 -3.390625 C 11.019531 -4.066406 11.21875 -4.832031 11.21875 -5.6875 C 11.21875 -6.539062 11.019531 -7.304688 10.625 -7.984375 C 10.238281 -8.660156 9.707031 -9.191406 9.03125 -9.578125 C 8.351562 -9.960938 7.582031 -10.15625 6.71875 -10.15625 C 5.863281 -10.15625 5.097656 -9.957031 4.421875 -9.5625 C 3.742188 -9.175781 3.207031 -8.644531 2.8125 -7.96875 C 2.425781 -7.289062 2.234375 -6.53125 2.234375 -5.6875 C 2.234375 -4.832031 2.425781 -4.066406 2.8125 -3.390625 C 3.207031 -2.722656 3.742188 -2.191406 4.421875 -1.796875 C 5.097656 -1.398438 5.863281 -1.203125 6.71875 -1.203125 Z M 6.71875 -1.203125 "/></g></g></g><g fill="#202020" fill-opacity="1"><g transform="translate(35.14887, 12.881316)"><g><path d="M 14.8125 0 L 13.359375 0 L 11.890625 -8.875 L 7.953125 -0.296875 L 7.578125 -0.296875 L 3.65625 -8.859375 L 2.171875 0 L 0.71875 0 L 2.625 -11.359375 L 4 -11.359375 L 7.765625 -3.015625 L 11.53125 -11.359375 L 12.921875 -11.359375 Z M 14.8125 0 "/></g></g></g><g fill="#202020" fill-opacity="1"><g transform="translate(54.997345, 12.881316)"><g><path d="M 2.96875 -1.359375 L 8.171875 -1.359375 L 8.171875 0 L 1.5625 0 L 1.5625 -11.359375 L 7.984375 -11.359375 L 7.984375 -10.015625 L 2.96875 -10.015625 L 2.96875 -6.5 L 7.5625 -6.5 L 7.5625 -5.171875 L 2.96875 -5.171875 Z M 2.96875 -1.359375 "/></g></g></g><g fill="#202020" fill-opacity="1"><g transform="translate(68.290174, 12.881316)"><g/></g></g><g fill="#202020" fill-opacity="1"><g transform="translate(76.86101, 12.881316)"><g><path d="M 9.5 0 L 8.359375 -2.734375 L 2.90625 -2.734375 L 1.78125 0 L 0.28125 0 L 4.921875 -11.359375 L 6.25 -11.359375 L 11.046875 0 Z M 5.609375 -9.40625 L 3.4375 -4.03125 L 7.828125 -4.03125 Z M 5.609375 -9.40625 "/></g></g></g><g fill="#202020" fill-opacity="1"><g transform="translate(92.490504, 12.881316)"><g><path d="M 5.890625 0.1875 C 5.035156 0.1875 4.269531 0 3.59375 -0.375 C 2.914062 -0.75 2.378906 -1.269531 1.984375 -1.9375 C 1.597656 -2.601562 1.40625 -3.367188 1.40625 -4.234375 L 1.40625 -11.359375 L 2.859375 -11.359375 L 2.859375 -4.328125 C 2.859375 -3.710938 2.988281 -3.171875 3.25 -2.703125 C 3.507812 -2.234375 3.863281 -1.863281 4.3125 -1.59375 C 4.769531 -1.332031 5.296875 -1.203125 5.890625 -1.203125 C 6.472656 -1.203125 6.992188 -1.332031 7.453125 -1.59375 C 7.910156 -1.863281 8.265625 -2.234375 8.515625 -2.703125 C 8.765625 -3.171875 8.890625 -3.710938 8.890625 -4.328125 L 8.890625 -11.359375 L 10.34375 -11.359375 L 10.34375 -4.234375 C 10.34375 -3.367188 10.144531 -2.601562 9.75 -1.9375 C 9.363281 -1.269531 8.832031 -0.75 8.15625 -0.375 C 7.488281 0 6.734375 0.1875 5.890625 0.1875 Z M 5.890625 0.1875 "/></g></g></g><g fill="#202020" fill-opacity="1"><g transform="translate(108.558123, 12.881316)"><g><path d="M 8.6875 -11.359375 L 8.6875 -10.03125 L 5.234375 -10.03125 L 5.234375 0 L 3.796875 0 L 3.796875 -10.03125 L 0.34375 -10.03125 L 0.34375 -11.359375 Z M 8.6875 -11.359375 "/></g></g></g><g fill="#202020" fill-opacity="1"><g transform="translate(121.899642, 12.881316)"><g><path d="M 6.71875 0.1875 C 5.863281 0.1875 5.070312 0.0390625 4.34375 -0.25 C 3.625 -0.550781 2.992188 -0.960938 2.453125 -1.484375 C 1.921875 -2.015625 1.507812 -2.632812 1.21875 -3.34375 C 0.925781 -4.0625 0.78125 -4.84375 0.78125 -5.6875 C 0.78125 -6.519531 0.925781 -7.289062 1.21875 -8 C 1.507812 -8.71875 1.921875 -9.34375 2.453125 -9.875 C 2.992188 -10.40625 3.625 -10.816406 4.34375 -11.109375 C 5.070312 -11.410156 5.863281 -11.5625 6.71875 -11.5625 C 7.582031 -11.5625 8.375 -11.410156 9.09375 -11.109375 C 9.820312 -10.816406 10.453125 -10.40625 10.984375 -9.875 C 11.515625 -9.34375 11.925781 -8.722656 12.21875 -8.015625 C 12.519531 -7.304688 12.671875 -6.53125 12.671875 -5.6875 C 12.671875 -4.84375 12.519531 -4.0625 12.21875 -3.34375 C 11.925781 -2.625 11.515625 -2.003906 10.984375 -1.484375 C 10.453125 -0.960938 9.820312 -0.550781 9.09375 -0.25 C 8.375 0.0390625 7.582031 0.1875 6.71875 0.1875 Z M 6.71875 -1.203125 C 7.582031 -1.203125 8.351562 -1.394531 9.03125 -1.78125 C 9.707031 -2.175781 10.238281 -2.710938 10.625 -3.390625 C 11.019531 -4.066406 11.21875 -4.832031 11.21875 -5.6875 C 11.21875 -6.539062 11.019531 -7.304688 10.625 -7.984375 C 10.238281 -8.660156 9.707031 -9.191406 9.03125 -9.578125 C 8.351562 -9.960938 7.582031 -10.15625 6.71875 -10.15625 C 5.863281 -10.15625 5.097656 -9.957031 4.421875 -9.5625 C 3.742188 -9.175781 3.207031 -8.644531 2.8125 -7.96875 C 2.425781 -7.289062 2.234375 -6.53125 2.234375 -5.6875 C 2.234375 -4.832031 2.425781 -4.066406 2.8125 -3.390625 C 3.207031 -2.722656 3.742188 -2.191406 4.421875 -1.796875 C 5.097656 -1.398438 5.863281 -1.203125 6.71875 -1.203125 Z M 6.71875 -1.203125 "/></g></g></g><g fill="#202020" fill-opacity="1"><g transform="translate(139.671084, 12.881316)"><g><path d="M 14.8125 0 L 13.359375 0 L 11.890625 -8.875 L 7.953125 -0.296875 L 7.578125 -0.296875 L 3.65625 -8.859375 L 2.171875 0 L 0.71875 0 L 2.625 -11.359375 L 4 -11.359375 L 7.765625 -3.015625 L 11.53125 -11.359375 L 12.921875 -11.359375 Z M 14.8125 0 "/></g></g></g><g fill="#202020" fill-opacity="1"><g transform="translate(159.519559, 12.881316)"><g><path d="M 9.5 0 L 8.359375 -2.734375 L 2.90625 -2.734375 L 1.78125 0 L 0.28125 0 L 4.921875 -11.359375 L 6.25 -11.359375 L 11.046875 0 Z M 5.609375 -9.40625 L 3.4375 -4.03125 L 7.828125 -4.03125 Z M 5.609375 -9.40625 "/></g></g></g><g fill="#202020" fill-opacity="1"><g transform="translate(175.149053, 12.881316)"><g><path d="M 8.6875 -11.359375 L 8.6875 -10.03125 L 5.234375 -10.03125 L 5.234375 0 L 3.796875 0 L 3.796875 -10.03125 L 0.34375 -10.03125 L 0.34375 -11.359375 Z M 8.6875 -11.359375 "/></g></g></g><g fill="#202020" fill-opacity="1"><g transform="translate(188.490572, 12.881316)"><g><path d="M 1.5625 0 L 1.5625 -11.359375 L 2.96875 -11.359375 L 2.96875 0 Z M 1.5625 0 "/></g></g></g><g fill="#202020" fill-opacity="1"><g transform="translate(197.337266, 12.881316)"><g><path d="M 6.71875 0.1875 C 5.863281 0.1875 5.070312 0.0390625 4.34375 -0.25 C 3.625 -0.550781 2.992188 -0.960938 2.453125 -1.484375 C 1.921875 -2.015625 1.507812 -2.632812 1.21875 -3.34375 C 0.925781 -4.0625 0.78125 -4.84375 0.78125 -5.6875 C 0.78125 -6.519531 0.925781 -7.289062 1.21875 -8 C 1.507812 -8.71875 1.921875 -9.34375 2.453125 -9.875 C 2.992188 -10.40625 3.625 -10.816406 4.34375 -11.109375 C 5.070312 -11.410156 5.863281 -11.5625 6.71875 -11.5625 C 7.582031 -11.5625 8.375 -11.410156 9.09375 -11.109375 C 9.820312 -10.816406 10.453125 -10.40625 10.984375 -9.875 C 11.515625 -9.34375 11.925781 -8.722656 12.21875 -8.015625 C 12.519531 -7.304688 12.671875 -6.53125 12.671875 -5.6875 C 12.671875 -4.84375 12.519531 -4.0625 12.21875 -3.34375 C 11.925781 -2.625 11.515625 -2.003906 10.984375 -1.484375 C 10.453125 -0.960938 9.820312 -0.550781 9.09375 -0.25 C 8.375 0.0390625 7.582031 0.1875 6.71875 0.1875 Z M 6.71875 -1.203125 C 7.582031 -1.203125 8.351562 -1.394531 9.03125 -1.78125 C 9.707031 -2.175781 10.238281 -2.710938 10.625 -3.390625 C 11.019531 -4.066406 11.21875 -4.832031 11.21875 -5.6875 C 11.21875 -6.539062 11.019531 -7.304688 10.625 -7.984375 C 10.238281 -8.660156 9.707031 -9.191406 9.03125 -9.578125 C 8.351562 -9.960938 7.582031 -10.15625 6.71875 -10.15625 C 5.863281 -10.15625 5.097656 -9.957031 4.421875 -9.5625 C 3.742188 -9.175781 3.207031 -8.644531 2.8125 -7.96875 C 2.425781 -7.289062 2.234375 -6.53125 2.234375 -5.6875 C 2.234375 -4.832031 2.425781 -4.066406 2.8125 -3.390625 C 3.207031 -2.722656 3.742188 -2.191406 4.421875 -1.796875 C 5.097656 -1.398438 5.863281 -1.203125 6.71875 -1.203125 Z M 6.71875 -1.203125 "/></g></g></g><g fill="#202020" fill-opacity="1"><g transform="translate(215.108708, 12.881316)"><g><path d="M 9.21875 -11.359375 L 10.625 -11.359375 L 10.625 0 L 9.421875 0 L 2.9375 -8.859375 L 2.9375 0 L 1.5625 0 L 1.5625 -11.359375 L 2.84375 -11.359375 L 9.21875 -2.59375 Z M 9.21875 -11.359375 "/></g></g></g></g></g></svg>